<svg width="14" height="14" viewBox="0 0 14 14" fill="none" xmlns="http://www.w3.org/2000/svg">
<rect x="0.642057" y="0.701596" width="12.7677" height="12.7677" stroke="white" stroke-width="0.41186"/>
<g clip-path="url(#clip0_1_159)">
<path d="M6.97528 5.42021C6.04962 5.42021 5.30298 6.163 5.30298 7.0839C5.30298 8.00479 6.04962 8.74758 6.97528 8.74758C7.90094 8.74758 8.64758 8.00479 8.64758 7.0839C8.64758 6.163 7.90094 5.42021 6.97528 5.42021ZM6.97528 8.16551C6.37709 8.16551 5.88806 7.68045 5.88806 7.0839C5.88806 6.48734 6.37564 6.00228 6.97528 6.00228C7.57492 6.00228 8.0625 6.48734 8.0625 7.0839C8.0625 7.68045 7.57347 8.16551 6.97528 8.16551ZM9.10605 5.35216C9.10605 5.5679 8.9314 5.7402 8.71599 5.7402C8.49913 5.7402 8.32593 5.56645 8.32593 5.35216C8.32593 5.13786 8.50058 4.96411 8.71599 4.96411C8.9314 4.96411 9.10605 5.13786 9.10605 5.35216ZM10.2136 5.746C10.1889 5.22618 10.0696 4.76574 9.68677 4.38638C9.30544 4.00702 8.84261 3.88828 8.32011 3.86222C7.7816 3.83181 6.16751 3.83181 5.62899 3.86222C5.10795 3.88684 4.64512 4.00557 4.26233 4.38493C3.87955 4.76429 3.76166 5.22474 3.73546 5.74455C3.7049 6.28029 3.7049 7.88606 3.73546 8.4218C3.76021 8.94161 3.87955 9.40205 4.26233 9.78141C4.64512 10.1608 5.10649 10.2795 5.62899 10.3056C6.16751 10.336 7.7816 10.336 8.32011 10.3056C8.84261 10.281 9.30544 10.1622 9.68677 9.78141C10.0681 9.40205 10.1874 8.94161 10.2136 8.4218C10.2442 7.88606 10.2442 6.28174 10.2136 5.746ZM9.51794 8.99663C9.40441 9.28043 9.18464 9.49907 8.89792 9.61345C8.46856 9.78286 7.44975 9.74377 6.97528 9.74377C6.50081 9.74377 5.48054 9.78141 5.05264 9.61345C4.76737 9.50051 4.5476 9.28187 4.43262 8.99663C4.26233 8.56949 4.30163 7.55593 4.30163 7.0839C4.30163 6.61187 4.26379 5.59686 4.43262 5.17116C4.54614 4.88737 4.76592 4.66873 5.05264 4.55434C5.48199 4.38493 6.50081 4.42402 6.97528 4.42402C7.44975 4.42402 8.47002 4.38638 8.89792 4.55434C9.18319 4.66728 9.40296 4.88592 9.51794 5.17116C9.68823 5.59831 9.64893 6.61187 9.64893 7.0839C9.64893 7.55593 9.68823 8.57093 9.51794 8.99663Z" fill="white"/>
</g>
<defs>
<clipPath id="clip0_1_159">
<rect width="6.58976" height="7.41348" fill="white" transform="translate(3.73105 3.37842)"/>
</clipPath>
</defs>
</svg>
