<svg width="14" height="14" viewBox="0 0 14 14" fill="none" xmlns="http://www.w3.org/2000/svg">
<rect x="0.8728" y="0.701596" width="12.7677" height="12.7677" stroke="white" stroke-width="0.41186"/>
<g clip-path="url(#clip0_1_154)">
<path d="M5.42487 9.96806V5.79984H4.02694V9.96806H5.42487ZM4.72608 5.2304C5.21357 5.2304 5.517 4.91033 5.517 4.51035C5.50792 4.10135 5.21358 3.79016 4.73533 3.79016C4.25716 3.79016 3.94446 4.10135 3.94446 4.51035C3.94446 4.91035 4.24782 5.2304 4.71696 5.2304H4.72604H4.72608ZM6.19862 9.96806H7.59655V7.64032C7.59655 7.51575 7.60563 7.3913 7.64255 7.30225C7.74361 7.05334 7.97362 6.79555 8.35979 6.79555C8.86564 6.79555 9.06801 7.17779 9.06801 7.73813V9.96803H10.4659V7.57801C10.4659 6.2977 9.77619 5.70199 8.85644 5.70199C8.10231 5.70199 7.7712 6.11975 7.58725 6.40428H7.59658V5.79976H6.19865C6.21699 6.19088 6.19865 9.96798 6.19865 9.96798L6.19862 9.96806Z" fill="white"/>
</g>
<defs>
<clipPath id="clip0_1_154">
<rect width="6.58976" height="6.1779" fill="white" transform="translate(3.96173 3.79041)"/>
</clipPath>
</defs>
</svg>
