<svg width="15" height="14" viewBox="0 0 15 14" fill="none" xmlns="http://www.w3.org/2000/svg">
<rect x="1.10351" y="0.701596" width="12.7677" height="12.7677" stroke="white" stroke-width="0.41186"/>
<g clip-path="url(#clip0_1_149)">
<path d="M11.1031 4.90461C10.8285 5.02178 10.5371 5.09868 10.2388 5.13277C10.5495 4.95344 10.7881 4.66947 10.9005 4.33113C10.6051 4.49991 10.2819 4.61883 9.94483 4.68274C9.67029 4.40115 9.27919 4.22516 8.84632 4.22516C8.01518 4.22516 7.34132 4.87393 7.34132 5.67412C7.34132 5.7877 7.35464 5.89827 7.38029 6.00435C6.12954 5.94391 5.02063 5.36705 4.27834 4.4904C4.14883 4.7044 4.07461 4.95333 4.07461 5.21885C4.07461 5.72157 4.34032 6.16506 4.74412 6.42491C4.50513 6.41771 4.2714 6.35556 4.06244 6.24366C4.06235 6.24973 4.06235 6.2558 4.06235 6.26189C4.06235 6.96394 4.5811 7.54959 5.26955 7.68271C5.04793 7.74074 4.81547 7.74923 4.58993 7.70754C4.78142 8.28321 5.33723 8.70211 5.99575 8.71384C5.4807 9.10245 4.83177 9.33411 4.12671 9.33411C4.00521 9.33411 3.88544 9.32724 3.7677 9.31386C4.43371 9.72499 5.22476 9.96487 6.07464 9.96487C8.84282 9.96487 10.3565 7.75692 10.3565 5.84216C10.3565 5.77931 10.3551 5.71682 10.3522 5.65469C10.6468 5.44962 10.9011 5.19562 11.1031 4.90461Z" fill="white"/>
</g>
<defs>
<clipPath id="clip0_1_149">
<rect width="7.41348" height="5.76604" fill="white" transform="translate(3.78067 4.20239)"/>
</clipPath>
</defs>
</svg>
